<?xml version="1.0" standalone="no"?>
<!DOCTYPE svg PUBLIC "-//W3C//DTD SVG 20010904//EN"
 "http://www.w3.org/TR/2001/REC-SVG-20010904/DTD/svg10.dtd">
<svg version="1.0" xmlns="http://www.w3.org/2000/svg"
 width="134.000000pt" height="145.000000pt" viewBox="0 0 134.000000 145.000000"
 preserveAspectRatio="xMidYMid meet">
<metadata>
Created by potrace 1.16, written by Peter Selinger 2001-2019
</metadata>
<g transform="translate(0.000000,145.000000) scale(0.100000,-0.100000)"
fill="#000000" stroke="none">
<path d="M0 725 l0 -725 670 0 670 0 0 725 0 725 -670 0 -670 0 0 -725z m268
628 c5 -10 12 -79 15 -153 4 -109 9 -146 28 -195 27 -71 106 -154 189 -200 52
-28 61 -30 170 -30 101 0 121 3 163 24 66 33 147 109 179 168 39 70 49 121 57
268 l6 130 92 3 92 3 7 -27 c12 -47 -3 -315 -21 -364 -74 -207 -226 -354 -414
-400 -19 -5 -38 -15 -42 -22 -5 -7 -9 -119 -9 -249 0 -207 -2 -238 -16 -243
-29 -11 -169 -7 -182 6 -9 9 -12 76 -12 242 0 199 -2 232 -17 248 -9 10 -26
18 -39 18 -31 0 -151 56 -199 94 -53 41 -124 116 -131 138 -3 10 -9 18 -13 18
-12 0 -63 110 -78 170 -20 79 -30 335 -13 355 9 11 33 15 96 15 69 0 85 -3 92
-17z"/>
</g>
</svg>
