<?xml version="1.0" standalone="no"?>
<!DOCTYPE svg PUBLIC "-//W3C//DTD SVG 20010904//EN"
 "http://www.w3.org/TR/2001/REC-SVG-20010904/DTD/svg10.dtd">
<svg version="1.0" xmlns="http://www.w3.org/2000/svg"
 width="208.000000pt" height="78.000000pt" viewBox="0 0 208.000000 78.000000"
 preserveAspectRatio="xMidYMid meet">
<metadata>
Created by potrace 1.16, written by Peter Selinger 2001-2019
</metadata>
<g transform="translate(0.000000,78.000000) scale(0.100000,-0.100000)"
fill="#000000" stroke="none">
<path d="M250 160 l0 -70 33 0 c41 0 67 26 67 66 0 37 -9 50 -43 63 -54 21
-57 17 -57 -59z m54 40 c44 -16 31 -90 -16 -90 -15 0 -18 9 -18 50 0 28 2 50
4 50 3 0 16 -4 30 -10z"/>
<path d="M432 160 c-17 -38 -26 -70 -21 -70 5 0 12 7 15 15 8 21 64 19 80 -2
25 -35 22 -7 -5 55 -15 34 -30 64 -33 67 -3 3 -19 -26 -36 -65z m48 -6 c0 -8
-7 -14 -15 -14 -17 0 -18 2 -9 24 7 18 24 12 24 -10z"/>
<path d="M590 162 c0 -41 4 -72 10 -72 6 0 10 21 10 47 l0 47 50 -49 50 -49 0
72 c0 41 -4 72 -10 72 -5 0 -10 -21 -10 -47 l0 -47 -50 49 -50 49 0 -72z"/>
<path d="M805 206 c-14 -14 -25 -36 -25 -49 0 -28 28 -65 50 -68 37 -4 60 2
60 16 0 12 -4 13 -17 7 -10 -6 -28 -6 -40 -1 -30 11 -38 45 -18 76 14 21 22
24 47 19 21 -4 28 -2 26 7 -8 23 -56 20 -83 -7z"/>
<path d="M960 160 l0 -70 35 0 c19 0 35 5 35 10 0 6 -11 10 -25 10 -18 0 -25
5 -25 20 0 15 7 20 25 20 14 0 25 5 25 10 0 6 -11 10 -25 10 -18 0 -25 5 -25
20 0 15 7 20 25 20 14 0 25 5 25 10 0 6 -16 10 -35 10 l-35 0 0 -70z"/>
<path d="M1212 218 c-21 -21 -13 -47 18 -63 17 -9 30 -20 30 -26 0 -16 -29
-22 -45 -9 -9 7 -19 10 -23 6 -4 -4 4 -16 17 -27 21 -17 26 -18 45 -6 29 20
27 58 -4 74 -32 16 -33 39 -2 35 15 -1 22 2 20 10 -6 18 -41 21 -56 6z"/>
<path d="M1349 188 c-1 -24 -2 -55 -3 -70 -2 -18 2 -28 11 -28 8 0 13 12 13
30 0 27 3 30 30 30 27 0 30 -3 30 -30 0 -16 5 -30 10 -30 6 0 10 28 10 64 0
36 -4 68 -10 71 -6 4 -10 -7 -10 -24 0 -28 -3 -31 -30 -31 -25 0 -30 4 -30 24
0 45 -20 39 -21 -6z"/>
<path d="M1543 215 c-66 -47 -8 -150 70 -123 51 18 62 74 22 113 -27 28 -61
32 -92 10z m83 -30 c14 -21 15 -31 5 -51 -9 -21 -17 -25 -49 -22 -34 3 -37 6
-40 36 -2 18 2 40 9 48 19 22 57 17 75 -11z"/>
<path d="M1729 218 c-1 -7 -2 -39 -3 -70 l-1 -58 38 0 c20 0 37 5 37 10 0 6
-11 10 -25 10 -18 0 -25 5 -25 20 0 15 7 20 25 20 14 0 25 5 25 10 0 6 -11 10
-25 10 -18 0 -25 5 -25 20 0 15 7 20 25 20 14 0 25 5 25 10 0 15 -70 12 -71
-2z"/>
<path d="M1882 218 c-21 -21 -13 -47 18 -63 17 -9 30 -22 30 -30 0 -17 -31
-20 -47 -4 -7 7 -13 7 -17 1 -9 -15 32 -41 55 -35 30 8 37 53 10 74 -12 10
-27 19 -33 21 -6 2 -8 10 -4 16 4 8 16 10 28 6 15 -4 19 -2 16 7 -6 19 -40 23
-56 7z"/>
</g>
</svg>
